#!OML:ASF H:\ManfredETheater\Project 1\Capture day 1\Session 1\subject.ASF
:FULLY-SPECIFIED
:DEGREES
139
root 4.48813 16.8508 19.0748 13.991 60.0009 0.975597
lowerback 13.9292 -2.64682 -3.65093
upperback 0.509107 -3.95827 1.3145
thorax -6.92515 -1.77526 4.22603
lowerneck -18.0794 0.575454 -1.5636
upperneck 15.031 1.78517 -2.9876
head 7.62536 0.471353 -0.522694
rclavicle -3.67752e-015 -7.7526e-015
rhumerus -73.0416 -0.769399 -75.4
rradius 85.7527
rwrist -22.622
rhand -23.1371 9.19911
rfingers 7.12502
rthumb 3.31069 -20.7549
lclavicle -3.67752e-015 -7.7526e-015
lhumerus -44.565 -18.852 98.5654
lradius 118.808
lwrist 3.98548
lhand -19.9994 -13.2154
lfingers 7.12502
lthumb 6.34042 16.6697
rfemur -51.2079 -11.2207 11.9458
rtibia 46.9185
rfoot -8.8083 -5.87178
rtoes -44.3217
lfemur -6.48229 -0.535075 -31.8038
ltibia 43.8318
lfoot 7.01834 -16.3025
ltoes 5.98554
140
root 4.87042 16.8889 19.3759 14.4179 59.7551 2.01924
lowerback 13.7294 -2.59372 -3.9547
upperback 0.635327 -3.93409 1.19071
thorax -6.66914 -1.76627 4.24193
lowerneck -18.0118 0.543432 -1.61297
upperneck 15.0885 1.77229 -3.07233
head 7.63363 0.454082 -0.544254
rclavicle 6.85807e-014 4.96962e-015
rhumerus -73.1853 -1.12993 -75.5894
rradius 85.924
rwrist -22.863
rhand -23.2423 9.01515
rfingers 7.12502
rthumb 3.20915 -20.9404
lclavicle 6.85807e-014 4.96962e-015
lhumerus -45.9054 -19.0546 98.5685
lradius 116.04
lwrist 2.24943
lhand -20.4347 -13.4497
lfingers 7.12502
lthumb 5.92014 16.4476
rfemur -50.9349 -11.2063 12.5684
rtibia 43.4365
rfoot -7.01213 -5.36313
rtoes -44.6805
lfemur -5.04287 -2.03776 -32.0382
ltibia 43.3448
lfoot 11.5868 -16.9337
ltoes 4.99755
141
root 5.25039 16.9137 19.6796 14.9226 59.578 3.17423
lowerback 13.5468 -2.53499 -4.34473
upperback 0.746158 -3.91498 1.05781
thorax -6.43413 -1.75698 4.29998
lowerneck -17.9359 0.479604 -1.68173
upperneck 15.1817 1.71153 -3.10056
head 7.65097 0.417873 -0.549647
rclavicle -5.46161e-014 -2.88238e-015
rhumerus -73.1677 -1.52511 -75.7855
rradius 85.9771
rwrist -23.1158
rhand -23.3812 8.79158
rfingers 7.12502
rthumb 3.07495 -21.166
lclavicle -5.46161e-014 -2.88238e-015
lhumerus -47.1273 -19.1595 98.5569
lradius 113.061
lwrist 1.54998
lhand -20.6946 -13.5917
lfingers 7.12502
lthumb 5.66926 16.3124
rfemur -50.5311 -11.2464 13.1304
rtibia 40.3099
rfoot -5.05187 -5.04602
rtoes -44.9684
lfemur -3.86559 -3.58498 -32.4004
ltibia 43.3489
lfoot 15.2242 -17.7051
ltoes 5.33979
142
root 5.62719 16.9252 19.9856 15.5072 59.472 4.43252
lowerback 13.3874 -2.47553 -4.81495
upperback 0.833941 -3.90662 0.916728
thorax -6.23123 -1.75004 4.39924
lowerneck -17.8474 0.391168 -1.76052
upperneck 15.3065 1.61374 -3.09231
head 7.67583 0.366595 -0.54573
rclavicle 2.74074e-014 1.98785e-015
rhumerus -73.0041 -1.94141 -75.9923
rradius 85.9229
rwrist -23.355
rhand -23.5091 8.51396
rfingers 7.12502
rthumb 2.95146 -21.4454
lclavicle 2.74074e-014 1.98785e-015
lhumerus -48.2116 -19.1676 98.5242
lradius 109.933
lwrist 1.77664
lhand -20.7622 -13.6712
lfingers 7.12502
lthumb 5.60393 16.2347
rfemur -50.0547 -11.3195 13.6223
rtibia 37.6636
rfoot -3.11262 -4.91625
rtoes -45.2242
lfemur -2.9765 -5.05372 -32.8469
ltibia 43.9224
lfoot 17.6019 -18.4721
ltoes 6.43678
143
root 6.00058 16.9237 20.2938 16.1696 59.4412 5.78693
lowerback 13.2458 -2.42036 -5.3601
upperback 0.900894 -3.91421 0.771405
thorax -6.05431 -1.74841 4.54103
lowerneck -17.7515 0.285723 -1.85234
upperneck 15.4572 1.49152 -3.0563
head 7.70751 0.305287 -0.533393
rclavicle -6.12505e-014 3.29486e-014
rhumerus -72.702 -2.37365 -76.2068
rradius 85.7715
rwrist -23.552
rhand -23.6356 8.25375
rfingers 7.12502
rthumb 2.82924 -21.7072
lclavicle -6.12505e-014 3.29486e-014
lhumerus -49.1509 -19.0738 98.4541
lradius 106.701
lwrist 2.6597
lhand -20.7109 -13.7187
lfingers 7.12502
lthumb 5.65343 16.1859
rfemur -49.5507 -11.4113 14.0354
rtibia 35.6036
rfoot -1.33893 -4.89466
rtoes -45.3088
lfemur -2.3788 -6.36098 -33.3305
ltibia 45.0951
lfoot 18.5533 -19.0229
ltoes 7.30635
144
root 6.37018 16.9102 20.6044 16.8596 59.4826 7.17354
lowerback 13.1186 -2.37069 -5.94848
upperback 0.947995 -3.93417 0.628852
thorax -5.90202 -1.75115 4.71378
lowerneck -17.6411 0.167534 -1.94912
upperneck 15.6197 1.35051 -3.00719
head 7.74046 0.236002 -0.518098
rclavicle 1.16165e-015 -2.75441e-014
rhumerus -72.2772 -2.81816 -76.4283
rradius 85.5392
rwrist -23.6935
rhand -23.7333 8.01261
rfingers 7.12502
rthumb 2.73495 -21.9496
lclavicle 1.16165e-015 -2.75441e-014
lhumerus -49.9452 -18.8659 98.3243
lradius 103.387
lwrist 3.83455
lhand -20.5998 -13.7523
lfingers 7.12502
lthumb 5.76071 16.1494
rfemur -49.0528 -11.5152 14.4179
rtibia 34.1993
rfoot 0.163504 -4.8208
rtoes -45.0424
lfemur -2.07037 -7.42703 -33.7683
ltibia 46.8376
lfoot 18.179 -19.2092
ltoes 7.26006
145
root 6.73589 16.8866 20.9168 17.501 59.5839 8.51018
lowerback 13.0143 -2.32157 -6.53889
upperback 0.980064 -3.95409 0.498604
thorax -5.77729 -1.75292 4.90258
lowerneck -17.5168 0.0399166 -2.05519
upperneck 15.7786 1.19598 -2.94681
head 7.76983 0.161056 -0.499072
rclavicle -1.24986e-014 5.61567e-015
rhumerus -71.7451 -3.27618 -76.6519
rradius 85.2428
rwrist -23.7683
rhand -23.7849 7.79872
rfingers 7.12502
rthumb 2.68508 -22.1641
lclavicle -1.24986e-014 5.61567e-015
lhumerus -50.6046 -18.5392 98.1279
lradius 100.003
lwrist 4.96234
lhand -20.5621 -13.8167
lfingers 7.12502
lthumb 5.7971 16.084
rfemur -48.5718 -11.6362 14.834
rtibia 33.473
rfoot 1.31649 -4.56414
rtoes -44.0405
lfemur -2.03179 -8.2143 -34.0818
ltibia 49.0708
lfoot 16.7965 -18.8897
ltoes 6.02891
146
root 7.0971 16.8547 21.2296 18.027 59.7215 9.72773
lowerback 12.952 -2.265 -7.09732
upperback 1.00048 -3.96039 0.383781
thorax -5.69091 -1.74717 5.09055
lowerneck -17.3792 -0.0956045 -2.17156
upperneck 15.9225 1.0289 -2.87139
head 7.79193 0.0813793 -0.474719
rclavicle 1.02747e-014 -2.5842e-015
rhumerus -71.1162 -3.74391 -76.882
rradius 84.8913
rwrist -23.7831
rhand -23.795 7.62064
rfingers 7.12502
rthumb 2.67538 -22.3423
lclavicle 1.02747e-014 -2.5842e-015
lhumerus -51.1418 -18.0819 97.8499
lradius 96.5602
lwrist 5.77879
lhand -20.7136 -13.9058
lfingers 7.12502
lthumb 5.65084 15.9989
rfemur -48.078 -11.7535 15.3158
rtibia 33.3898
rfoot 2.11524 -4.01878
rtoes -42.0455
lfemur -2.24541 -8.72087 -34.2201
ltibia 51.6824
lfoot 14.8737 -17.9659
ltoes 3.88973
147
root 7.45393 16.8163 21.5422 18.3148 59.8995 10.7032
lowerback 12.948 -2.20083 -7.55762
upperback 1.01918 -3.94454 0.298924
thorax -5.64635 -1.73094 5.25544
lowerneck -17.2292 -0.237769 -2.297
upperneck 16.0398 0.849762 -2.77922
head 7.80316 -0.00243311 -0.444545
rclavicle -1.91579e-014 1.58034e-014
rhumerus -70.399 -4.2118 -77.1238
rradius 84.5013
rwrist -23.773
rhand -23.7677 7.46516
rfingers 7.12502
rthumb 2.70174 -22.4975
lclavicle -1.91579e-014 1.58034e-014
lhumerus -51.5797 -17.4881 97.4831
lradius 93.0883
lwrist 6.15846
lhand -21.0845 -13.995
lfingers 7.12502
lthumb 5.29276 15.9189
rfemur -47.4989 -11.8683 15.9245
rtibia 33.8865
rfoot 2.4057 -3.40301
rtoes -38.6138
lfemur -2.6785 -8.95784 -34.1089
ltibia 54.5583
lfoot 12.7872 -16.5817
ltoes 1.36676
